<svg id="Layer_5" enable-background="new 0 0 64 64" height="512" viewBox="0 0 64 64" width="512" xmlns="http://www.w3.org/2000/svg"><g><g><g><path d="m32 63c-14.888 0-27-12.112-27-27s12.112-27 27-27 27 12.112 27 27-12.112 27-27 27zm0-47c-11.028 0-20 8.972-20 20s8.972 20 20 20 20-8.972 20-20-8.972-20-20-20z" fill="#f0bc5e"/></g></g><g><g><path d="m32 41.202-4-2.667v-5.07l4-2.667 4 2.667v5.07z" fill="#f0bc5e"/></g></g><g><path d="m25.156 9.881c.642-.168 1.294-.308 1.954-.429l-.99-4.947c.993-.526 3.195-1.505 5.88-1.505 2.667 0 4.882.981 5.879 1.507l-.989 4.945c.659.121 1.312.261 1.954.429l.437-2.183c13.314-1.067 22.68-4.611 23.079-4.765l-.718-1.866c-.093.036-9.213 3.486-21.953 4.589l.423-2.116-.557-.372c-.133-.088-3.301-2.168-7.555-2.168s-7.422 2.08-7.555 2.168l-.557.372.423 2.116c-12.721-1.102-21.859-4.553-21.952-4.59l-.718 1.867c.399.154 9.765 3.698 23.079 4.765z"/><circle cx="32" cy="49" r="1"/><path d="m41.899 45.899c.391-.391.391-1.024 0-1.414-.391-.391-1.024-.391-1.414 0-.391.391-.391 1.024 0 1.414.391.391 1.024.391 1.414 0z"/><circle cx="45" cy="36" r="1"/><path d="m40.485 26.1c-.391.391-.391 1.024 0 1.414.391.391 1.024.391 1.414 0 .391-.391.391-1.024 0-1.414-.39-.39-1.023-.39-1.414 0z"/><circle cx="32" cy="23" r="1"/><path d="m22.101 26.1c-.391.391-.391 1.024 0 1.414.391.391 1.024.391 1.414 0 .391-.391.391-1.024 0-1.414s-1.024-.39-1.414 0z"/><circle cx="19" cy="36" r="1"/><path d="m23.515 45.899c.391-.391.391-1.024 0-1.414-.391-.391-1.024-.391-1.414 0-.391.391-.391 1.024 0 1.414.39.391 1.023.391 1.414 0z"/><path d="m55 33c-.821 0-1.566.333-2.108.869-1-9.882-8.88-17.761-18.761-18.761.536-.542.869-1.287.869-2.108 0-1.654-1.346-3-3-3s-3 1.346-3 3c0 .821.333 1.566.869 2.108-9.882 1-17.761 8.88-18.761 18.761-.542-.536-1.287-.869-2.108-.869-1.654 0-3 1.346-3 3s1.346 3 3 3c.821 0 1.566-.333 2.108-.869 1 9.882 8.88 17.761 18.761 18.761-.536.542-.869 1.287-.869 2.108 0 1.654 1.346 3 3 3s3-1.346 3-3c0-.821-.333-1.566-.869-2.108 9.882-1 17.761-8.88 18.761-18.761.542.536 1.287.869 2.108.869 1.654 0 3-1.346 3-3s-1.346-3-3-3zm-10.47-3.638c-.949-.232-1.931-.362-2.933-.362h-.611c-.579 0-1.158.055-1.732.137-1.249-1.32-2.851-2.296-4.656-2.783.075-.08.143-.166.22-.243l.433-.433c2.212-2.212 5.261-3.286 8.374-2.937.416.046.808.234 1.104.53s.484.688.531 1.104c.187 1.699-.081 3.401-.73 4.987zm-6.195 11.505c-1.271 1.651-3.167 2.792-5.335 3.064v-3.395l-1 .667-1-.667v3.395c-2.167-.272-4.063-1.413-5.335-3.064l3.272-1.706-.937-.626v-1.142l-3.355 1.749c-.414-.965-.645-2.027-.645-3.142s.231-2.177.645-3.143l3.355 1.749v-1.142l.938-.625-3.273-1.706c1.271-1.651 3.167-2.792 5.335-3.064v3.396l1-.667 1 .667v-3.396c2.167.272 4.063 1.413 5.335 3.064l-3.273 1.706.938.626v1.142l3.355-1.749c.414.965.645 2.027.645 3.142s-.231 2.177-.645 3.143l-3.355-1.749v1.142l-.938.625zm-4.499-16.603-.433.433c-.408.408-.776.855-1.124 1.317-.093-.002-.184-.014-.279-.014-1.816 0-3.515.494-4.984 1.344-.004-.11-.016-.22-.016-.329v-.611c0-3.129 1.401-6.044 3.844-7.998.654-.522 1.658-.522 2.313 0 1.334 1.067 2.348 2.46 3.01 4.041-.836.506-1.622 1.108-2.331 1.817zm-8.699 4.482c-1.32 1.249-2.296 2.851-2.782 4.656-.08-.075-.166-.144-.244-.222l-.432-.431c-2.212-2.213-3.282-5.265-2.937-8.374.046-.416.234-.808.53-1.104s.688-.484 1.104-.531c1.699-.187 3.4.08 4.986.729-.233.95-.362 1.931-.362 2.934v.611c0 .58.055 1.159.137 1.732zm-4.872 5.419.431.43c.408.409.855.779 1.318 1.126-.002.093-.014.185-.014.279 0 1.816.494 3.515 1.344 4.984-.11.004-.22.016-.329.016h-.611c-3.128 0-6.043-1.401-7.998-3.843-.262-.327-.406-.738-.406-1.157s.144-.83.405-1.156c1.067-1.334 2.461-2.348 4.041-3.01.507.836 1.109 1.621 1.819 2.331zm-.795 8.473c.949.232 1.93.362 2.933.362h.611c.578 0 1.157-.055 1.731-.137 1.25 1.32 2.852 2.296 4.657 2.783-.075.08-.143.165-.221.243l-.433.433c-2.212 2.212-5.265 3.285-8.372 2.938-.417-.047-.81-.235-1.106-.531-.295-.296-.484-.688-.53-1.104-.187-1.698.081-3.401.73-4.987zm10.693 5.098.434-.434c.409-.409.778-.856 1.124-1.317.094.003.185.015.279.015 1.816 0 3.515-.494 4.984-1.344.004.11.016.22.016.329v.611c0 3.129-1.401 6.044-3.844 7.997-.654.523-1.658.523-2.313 0-1.335-1.067-2.349-2.461-3.012-4.044.836-.506 1.624-1.104 2.332-1.813zm8.7-4.483c1.32-1.25 2.296-2.852 2.783-4.657.08.075.166.145.244.222l.432.431c2.212 2.213 3.283 5.265 2.937 8.374-.046.416-.234.808-.531 1.104-.295.296-.688.484-1.104.531-1.698.19-3.401-.079-4.985-.729.232-.948.361-1.93.361-2.932v-.611c0-.58-.055-1.159-.137-1.733zm4.872-5.418-.431-.43c-.407-.408-.854-.779-1.318-1.127.002-.093.014-.184.014-.278 0-1.816-.494-3.515-1.344-4.984.11-.004.22-.016.329-.016h.611c3.128 0 6.043 1.401 7.998 3.843.262.327.406.738.406 1.157s-.144.83-.405 1.156c-1.068 1.333-2.461 2.348-4.041 3.009-.507-.835-1.109-1.621-1.819-2.33zm2.711-7.822c.666-1.671.954-3.455.846-5.242 1.784 2.424 3.001 5.279 3.471 8.383-1.209-1.371-2.68-2.435-4.317-3.141zm-8.464-8.461c-.713-1.656-1.773-3.123-3.116-4.312 3.104.473 5.958 1.693 8.38 3.481-1.822-.115-3.611.174-5.264.831zm-11.969.002c-1.672-.666-3.456-.953-5.241-.846 2.424-1.785 5.279-3.002 8.384-3.471-1.373 1.209-2.436 2.68-3.143 4.317zm-8.461 8.464c-1.655.712-3.122 1.772-4.312 3.116.473-3.104 1.693-5.958 3.481-8.38-.114 1.822.174 3.61.831 5.264zm.002 11.968c-.666 1.671-.953 3.455-.847 5.242-1.784-2.424-3.001-5.279-3.471-8.383 1.21 1.372 2.681 2.435 4.318 3.141zm3.973 9.337c1.556 0 3.076-.301 4.496-.866.713 1.652 1.771 3.116 3.112 4.302-3.104-.473-5.957-1.693-8.379-3.48.257.017.515.044.771.044zm16.463-.886c1.444.575 2.969.884 4.513.884.246 0 .494-.026.741-.041-2.427 1.791-5.288 3.013-8.4 3.483 1.375-1.211 2.44-2.685 3.146-4.326zm8.458-8.455c1.655-.712 3.122-1.773 4.312-3.116-.473 3.104-1.693 5.958-3.481 8.38.114-1.822-.174-3.611-.831-5.264zm-14.448-29.982c.551 0 1 .449 1 1s-.449 1-1 1-1-.449-1-1 .449-1 1-1zm-23 25c-.551 0-1-.448-1-1s.449-1 1-1 1 .448 1 1-.449 1-1 1zm23 23c-.551 0-1-.448-1-1s.449-1 1-1 1 .448 1 1-.449 1-1 1zm23-23c-.551 0-1-.448-1-1s.449-1 1-1 1 .448 1 1-.449 1-1 1z"/></g></g></svg>